<svg width="62" height="62" viewBox="0 0 62 62" fill="none" xmlns="http://www.w3.org/2000/svg">
<rect width="62" height="62" fill="white"/>
<rect x="4" y="14" width="54" height="1" fill="#E1E1E1"/>
<rect x="28" y="14" width="1" height="44" fill="#E1E1E1"/>
<rect x="43" y="14" width="1" height="44" fill="#E1E1E1"/>
<rect x="4" y="28" width="54" height="1" fill="#E1E1E1"/>
<rect x="4" y="42" width="54" height="1" fill="#E1E1E1"/>
<rect x="8" y="4" width="15" height="6" rx="2" fill="#9F9F9F"/>
<rect x="8" y="32" width="15" height="6" rx="2" fill="#E1E1E1"/>
<rect x="8" y="47" width="15" height="6" rx="2" fill="#E1E1E1"/>
<rect x="8" y="18" width="15" height="6" rx="2" fill="#E1E1E1"/>
<rect x="33" y="32" width="6" height="6" rx="3" fill="#E1E1E1"/>
<rect x="48" y="46" width="6" height="6" rx="3" fill="#E1E1E1"/>
<rect x="48" y="18" width="6" height="6" rx="3" fill="#E1E1E1"/>
<rect x="48" y="4" width="6" height="6" rx="3" fill="#9F9F9F"/>
<rect x="33" y="18" width="6" height="6" rx="3" fill="#E1E1E1"/>
<rect x="33" y="4" width="6" height="6" rx="3" fill="#9F9F9F"/>
</svg>
